<mxfile host="app.diagrams.net" agent="Mozilla/5.0 (Windows NT 10.0; Win64; x64) AppleWebKit/537.36 (KHTML, like Gecko) Chrome/137.0.0.0 Safari/537.36" version="26.0.16">
  <diagram name="Page-1" id="g44UF_MkwAo9eT_wS9iR">
    <mxGraphModel dx="1120" dy="426" grid="1" gridSize="10" guides="1" tooltips="1" connect="1" arrows="1" fold="1" page="1" pageScale="1" pageWidth="850" pageHeight="1100" math="0" shadow="1">
      <root>
        <mxCell id="0" />
        <mxCell id="1" parent="0" />
        <mxCell id="t8_1XIZZRlONqWQWUCz8-11" style="edgeStyle=orthogonalEdgeStyle;rounded=1;orthogonalLoop=1;jettySize=auto;html=1;exitX=1;exitY=0.25;exitDx=0;exitDy=0;entryX=0.25;entryY=0;entryDx=0;entryDy=0;" parent="1" source="t8_1XIZZRlONqWQWUCz8-1" target="t8_1XIZZRlONqWQWUCz8-3" edge="1">
          <mxGeometry relative="1" as="geometry">
            <Array as="points">
              <mxPoint x="200" y="100" />
              <mxPoint x="353" y="100" />
            </Array>
          </mxGeometry>
        </mxCell>
        <mxCell id="t8_1XIZZRlONqWQWUCz8-1" value="Pengumpulan Data" style="rounded=1;whiteSpace=wrap;html=1;" parent="1" vertex="1">
          <mxGeometry x="80" y="80" width="120" height="40" as="geometry" />
        </mxCell>
        <mxCell id="t8_1XIZZRlONqWQWUCz8-10" style="edgeStyle=orthogonalEdgeStyle;rounded=1;orthogonalLoop=1;jettySize=auto;html=1;exitX=0;exitY=0.25;exitDx=0;exitDy=0;entryX=0.75;entryY=0;entryDx=0;entryDy=0;" parent="1" source="t8_1XIZZRlONqWQWUCz8-2" target="t8_1XIZZRlONqWQWUCz8-3" edge="1">
          <mxGeometry relative="1" as="geometry">
            <Array as="points">
              <mxPoint x="580" y="100" />
              <mxPoint x="418" y="100" />
            </Array>
          </mxGeometry>
        </mxCell>
        <mxCell id="t8_1XIZZRlONqWQWUCz8-2" value="&lt;ol&gt;&lt;li&gt;Latar Belakang&lt;/li&gt;&lt;li&gt;Identifikasi Masalah&lt;/li&gt;&lt;li&gt;Rumusan Masalah&lt;/li&gt;&lt;/ol&gt;" style="rounded=1;whiteSpace=wrap;html=1;align=left;" parent="1" vertex="1">
          <mxGeometry x="580" y="80" width="160" height="60" as="geometry" />
        </mxCell>
        <mxCell id="t8_1XIZZRlONqWQWUCz8-16" style="edgeStyle=orthogonalEdgeStyle;rounded=1;orthogonalLoop=1;jettySize=auto;html=1;entryX=0.5;entryY=0;entryDx=0;entryDy=0;" parent="1" source="t8_1XIZZRlONqWQWUCz8-3" target="t8_1XIZZRlONqWQWUCz8-14" edge="1">
          <mxGeometry relative="1" as="geometry" />
        </mxCell>
        <mxCell id="t8_1XIZZRlONqWQWUCz8-3" value="Analisa Permasalahan" style="rounded=1;whiteSpace=wrap;html=1;" parent="1" vertex="1">
          <mxGeometry x="320" y="160" width="130" height="40" as="geometry" />
        </mxCell>
        <mxCell id="t8_1XIZZRlONqWQWUCz8-13" value="&lt;ol&gt;&lt;li&gt;Observasi&lt;/li&gt;&lt;li&gt;Kuesioner&lt;/li&gt;&lt;li&gt;Studi Kepustakaan&lt;/li&gt;&lt;/ol&gt;" style="shape=document;whiteSpace=wrap;html=1;boundedLbl=1;align=left;rounded=1;" parent="1" vertex="1">
          <mxGeometry x="80" y="160" width="160" height="90" as="geometry" />
        </mxCell>
        <mxCell id="t8_1XIZZRlONqWQWUCz8-18" style="edgeStyle=orthogonalEdgeStyle;rounded=1;orthogonalLoop=1;jettySize=auto;html=1;entryX=0.5;entryY=0;entryDx=0;entryDy=0;" parent="1" source="t8_1XIZZRlONqWQWUCz8-14" target="t8_1XIZZRlONqWQWUCz8-17" edge="1">
          <mxGeometry relative="1" as="geometry" />
        </mxCell>
        <mxCell id="t8_1XIZZRlONqWQWUCz8-14" value="Sistem Penunjang Keputusan" style="rounded=1;whiteSpace=wrap;html=1;" parent="1" vertex="1">
          <mxGeometry x="300" y="240" width="170" height="40" as="geometry" />
        </mxCell>
        <mxCell id="t8_1XIZZRlONqWQWUCz8-20" style="edgeStyle=orthogonalEdgeStyle;rounded=1;orthogonalLoop=1;jettySize=auto;html=1;entryX=0.5;entryY=0;entryDx=0;entryDy=0;" parent="1" source="t8_1XIZZRlONqWQWUCz8-17" target="t8_1XIZZRlONqWQWUCz8-19" edge="1">
          <mxGeometry relative="1" as="geometry" />
        </mxCell>
        <mxCell id="t8_1XIZZRlONqWQWUCz8-17" value="Implementasi Metode&lt;div&gt;&lt;i&gt;Additive Ratio Assessment (ARAS)&lt;/i&gt;&lt;/div&gt;" style="rounded=1;whiteSpace=wrap;html=1;" parent="1" vertex="1">
          <mxGeometry x="265" y="320" width="240" height="40" as="geometry" />
        </mxCell>
        <mxCell id="t8_1XIZZRlONqWQWUCz8-19" value="Implementasi Metode&amp;nbsp;&lt;i style=&quot;background-color: initial;&quot;&gt;Additive Ratio Assessment (ARAS) &lt;/i&gt;&lt;span style=&quot;background-color: initial;&quot;&gt;untuk Pemilihan Guru&amp;nbsp;Terbaik Berbasis &lt;i&gt;Web&lt;/i&gt;&lt;/span&gt;" style="rounded=1;whiteSpace=wrap;html=1;" parent="1" vertex="1">
          <mxGeometry x="210" y="600" width="350" height="60" as="geometry" />
        </mxCell>
        <mxCell id="t8_1XIZZRlONqWQWUCz8-23" style="edgeStyle=orthogonalEdgeStyle;rounded=1;orthogonalLoop=1;jettySize=auto;html=1;entryX=0.5;entryY=0;entryDx=0;entryDy=0;" parent="1" source="t8_1XIZZRlONqWQWUCz8-21" target="t8_1XIZZRlONqWQWUCz8-22" edge="1">
          <mxGeometry relative="1" as="geometry" />
        </mxCell>
        <mxCell id="t8_1XIZZRlONqWQWUCz8-21" value="Metode Pengembangan Sistem" style="rounded=1;whiteSpace=wrap;html=1;" parent="1" vertex="1">
          <mxGeometry x="580" y="160" width="160" height="40" as="geometry" />
        </mxCell>
        <mxCell id="t8_1XIZZRlONqWQWUCz8-29" style="edgeStyle=orthogonalEdgeStyle;rounded=1;orthogonalLoop=1;jettySize=auto;html=1;entryX=0.5;entryY=0;entryDx=0;entryDy=0;" parent="1" source="t8_1XIZZRlONqWQWUCz8-22" target="t8_1XIZZRlONqWQWUCz8-24" edge="1">
          <mxGeometry relative="1" as="geometry" />
        </mxCell>
        <mxCell id="t8_1XIZZRlONqWQWUCz8-22" value="&lt;i&gt;Waterfall&lt;/i&gt;" style="rounded=1;whiteSpace=wrap;html=1;" parent="1" vertex="1">
          <mxGeometry x="600" y="240" width="120" height="40" as="geometry" />
        </mxCell>
        <mxCell id="t8_1XIZZRlONqWQWUCz8-30" style="edgeStyle=orthogonalEdgeStyle;rounded=1;orthogonalLoop=1;jettySize=auto;html=1;entryX=0.5;entryY=0;entryDx=0;entryDy=0;" parent="1" source="t8_1XIZZRlONqWQWUCz8-24" target="t8_1XIZZRlONqWQWUCz8-25" edge="1">
          <mxGeometry relative="1" as="geometry" />
        </mxCell>
        <mxCell id="t8_1XIZZRlONqWQWUCz8-24" value="&lt;i&gt;Requirements&lt;/i&gt;" style="rounded=1;whiteSpace=wrap;html=1;" parent="1" vertex="1">
          <mxGeometry x="600" y="320" width="120" height="40" as="geometry" />
        </mxCell>
        <mxCell id="t8_1XIZZRlONqWQWUCz8-31" style="edgeStyle=orthogonalEdgeStyle;rounded=1;orthogonalLoop=1;jettySize=auto;html=1;entryX=0.5;entryY=0;entryDx=0;entryDy=0;" parent="1" source="t8_1XIZZRlONqWQWUCz8-25" target="t8_1XIZZRlONqWQWUCz8-26" edge="1">
          <mxGeometry relative="1" as="geometry" />
        </mxCell>
        <mxCell id="t8_1XIZZRlONqWQWUCz8-25" value="&lt;i&gt;Design&lt;/i&gt;" style="rounded=1;whiteSpace=wrap;html=1;" parent="1" vertex="1">
          <mxGeometry x="600" y="380" width="120" height="40" as="geometry" />
        </mxCell>
        <mxCell id="t8_1XIZZRlONqWQWUCz8-32" style="edgeStyle=orthogonalEdgeStyle;rounded=1;orthogonalLoop=1;jettySize=auto;html=1;entryX=0.5;entryY=0;entryDx=0;entryDy=0;" parent="1" source="t8_1XIZZRlONqWQWUCz8-26" target="t8_1XIZZRlONqWQWUCz8-27" edge="1">
          <mxGeometry relative="1" as="geometry" />
        </mxCell>
        <mxCell id="t8_1XIZZRlONqWQWUCz8-26" value="&lt;i&gt;Implementation&lt;/i&gt;" style="rounded=1;whiteSpace=wrap;html=1;" parent="1" vertex="1">
          <mxGeometry x="600" y="440" width="120" height="40" as="geometry" />
        </mxCell>
        <mxCell id="t8_1XIZZRlONqWQWUCz8-33" style="edgeStyle=orthogonalEdgeStyle;rounded=1;orthogonalLoop=1;jettySize=auto;html=1;entryX=0.5;entryY=0;entryDx=0;entryDy=0;" parent="1" source="t8_1XIZZRlONqWQWUCz8-27" target="t8_1XIZZRlONqWQWUCz8-28" edge="1">
          <mxGeometry relative="1" as="geometry" />
        </mxCell>
        <mxCell id="t8_1XIZZRlONqWQWUCz8-27" value="&lt;i&gt;Verification&lt;/i&gt;" style="rounded=1;whiteSpace=wrap;html=1;" parent="1" vertex="1">
          <mxGeometry x="600" y="500" width="120" height="40" as="geometry" />
        </mxCell>
        <mxCell id="t8_1XIZZRlONqWQWUCz8-40" style="edgeStyle=orthogonalEdgeStyle;rounded=1;orthogonalLoop=1;jettySize=auto;html=1;entryX=1;entryY=0.5;entryDx=0;entryDy=0;" parent="1" source="t8_1XIZZRlONqWQWUCz8-28" target="t8_1XIZZRlONqWQWUCz8-19" edge="1">
          <mxGeometry relative="1" as="geometry">
            <mxPoint x="600" y="680" as="targetPoint" />
            <Array as="points">
              <mxPoint x="660" y="630" />
            </Array>
          </mxGeometry>
        </mxCell>
        <mxCell id="t8_1XIZZRlONqWQWUCz8-28" value="&lt;i&gt;Maintenance&lt;/i&gt;" style="rounded=1;whiteSpace=wrap;html=1;" parent="1" vertex="1">
          <mxGeometry x="600" y="560" width="120" height="40" as="geometry" />
        </mxCell>
      </root>
    </mxGraphModel>
  </diagram>
</mxfile>
